HIERARCHY
ROOT simHips
{
  OFFSET 57.0683 98.7255 277.901
  CHANNELS 6 Xposition Yposition Zposition Zrotation Xrotation Yrotation
  JOINT simSpine
  {
    OFFSET -0.000355721 21.3001 -0.016921
    CHANNELS 3 Zrotation Xrotation Yrotation
    JOINT simLeftArm
    {
      OFFSET 13.5181 21.3012 0
      CHANNELS 3 Zrotation Xrotation Yrotation
      JOINT simLeftForeArm
      {
        OFFSET 24.5783 0 0
        CHANNELS 3 Zrotation Xrotation Yrotation
        JOINT simLeftHand
        {
          OFFSET 24.5783 0 0
          CHANNELS 3 Zrotation Xrotation Yrotation
          End Site
          {
            OFFSET 7.32568 1.52588e-05 0.0169305
          }
        }
      }
    }
    JOINT simHead
    {
      OFFSET 0 27.4458 -0.00489235
      CHANNELS 3 Zrotation Xrotation Yrotation
      End Site
      {
        OFFSET 0 0 0
      }
    }
    JOINT simRightArm
    {
      OFFSET -13.5174 21.3012 0
      CHANNELS 3 Zrotation Xrotation Yrotation
      JOINT simRightForeArm
      {
        OFFSET -24.5783 0 0
        CHANNELS 3 Zrotation Xrotation Yrotation
        JOINT simRightHand
        {
          OFFSET -24.5783 0 0
          CHANNELS 3 Zrotation Xrotation Yrotation
          End Site
          {
            OFFSET -7.32568 1.52588e-05 0.0169305
          }
        }
      }
    }
  }
  JOINT simRightUpLeg
  {
    OFFSET -8.44614 -9.41038 0.835684
    CHANNELS 3 Zrotation Xrotation Yrotation
    JOINT simRightLeg
    {
      OFFSET 0 -40.9639 0
      CHANNELS 3 Zrotation Xrotation Yrotation
      JOINT simRightFoot
      {
        OFFSET 0 -40.9639 0
        CHANNELS 3 Zrotation Xrotation Yrotation
        End Site
        {
          OFFSET 0.50614 -9.67405 14.6709
        }
      }
    }
  }
  JOINT simLeftUpLeg
  {
    OFFSET 8.44614 -9.41038 0.835684
    CHANNELS 3 Zrotation Xrotation Yrotation
    JOINT simLeftLeg
    {
      OFFSET 0 -40.9639 0
      CHANNELS 3 Zrotation Xrotation Yrotation
      JOINT simLeftFoot
      {
        OFFSET 0 -40.9639 0
        CHANNELS 3 Zrotation Xrotation Yrotation
        End Site
        {
          OFFSET -0.50614 -9.67405 14.6709
        }
      }
    }
  }
}
MOTION
Frames:	24
Frame Time:	0.0333333
57.0683 98.7255 277.901 2.61675 -1.46404 -171.265 3.80895 8.61297 1.73395 -89.6095 43.231 -4.18241 21.5552 -6.43093 -24.9153 1.31608 15.0257 1.1457 2.72384 7.23406 18.0888 90.7579 70.1032 -15.7194 -24.303 -10.1792 36.3649 0.75929 -29.1241 1.30805 -0.873395 -9.63363 0.516401 3.57475 28.5539 -0.23691 3.87659 -6.39719 -20.1593 1.06526 -14.8013 -15.1342 -5.15104 32.93 1.54813 -5.01987 -2.02171 11.3608 
57.1574 98.8505 277.895 2.93696 -2.31438 -172.531 3.78482 7.53668 2.6207 -90.3013 43.1103 -3.21964 21.6497 -6.47503 -25.046 1.39486 14.0702 1.0869 2.8481 7.95748 17.8838 91.8211 70.3224 -16.8533 -24.304 -10.238 36.4379 0.756369 -29.3596 1.30724 -0.511585 -10.5549 1.59639 3.6685 28.0669 -0.323176 4.16732 -5.74429 -20.1429 1.39303 -15.4891 -14.9625 -5.17005 32.8807 1.58518 -4.89319 -2.30732 11.2897 
57.1991 98.8933 277.851 3.18238 -2.68216 -173.254 3.97436 6.97085 2.90284 -90.9483 43.0665 -2.29659 21.804 -6.59872 -25.3546 1.49781 13.0578 1.02042 2.78318 8.76463 17.3873 92.3256 70.3363 -17.4909 -24.3411 -10.2743 36.4958 0.787429 -29.1919 1.32159 -0.265209 -10.9871 1.89318 3.7008 27.8866 -0.356826 4.21311 -5.49859 -19.6368 1.78412 -15.886 -14.3281 -5.19159 32.9749 1.62282 -5.09561 -2.20571 11.7513 
57.1683 98.8674 277.846 2.99114 -2.51324 -173.763 3.74341 7.22403 2.961 -91.2687 43.0477 -1.76698 21.8116 -6.62748 -25.3974 1.48738 13.1469 1.03685 2.76059 8.90992 17.2073 92.5115 70.5659 -17.6306 -24.3947 -10.3128 36.5915 0.800691 -29.2907 1.32947 -0.467061 -10.9105 1.96335 3.68495 28.055 -0.356295 4.26962 -5.35928 -19.471 1.51069 -15.4636 -14.5811 -5.19951 32.8577 1.59731 -5.157 -2.5649 12.2709 
57.1328 98.87 277.837 2.79872 -2.58806 -174.179 3.52273 7.01362 2.97775 -91.8949 43.0685 -0.9064 21.6396 -6.52342 -25.0653 1.34631 14.4216 1.14347 2.67501 9.19887 16.7338 93.1715 71.2348 -18.4067 -24.3678 -10.3059 36.5597 0.804422 -29.6485 1.33437 -0.736667 -11.0709 1.91706 3.68083 28.2172 -0.376711 4.32802 -5.20143 -19.2581 1.32886 -15.3207 -14.4903 -5.21113 32.7484 1.58387 -5.04793 -2.81516 12.2243 
57.1043 98.8374 277.839 2.44017 -2.49455 -174.289 3.06584 7.22892 2.83684 -91.9614 42.6296 -0.844441 21.6658 -6.49722 -25.0561 1.39065 14.3346 1.09504 2.66857 9.44937 15.9127 93.3866 71.6442 -18.6894 -24.4546 -10.3855 36.747 0.791924 -29.9613 1.32715 -1.12326 -11.1495 1.92813 3.66621 28.5421 -0.38525 4.29357 -5.23337 -18.9632 0.965077 -15.082 -14.4378 -5.22422 32.5703 1.56348 -5.09373 -2.82629 12.3845 
57.0743 98.8609 277.809 2.30259 -2.47759 -174.793 2.91604 7.26101 3.02198 -92.059 41.7573 -1.03141 21.5713 -6.42732 -24.8982 1.44724 14.272 1.06675 2.37737 9.59125 15.3385 93.5787 72.2845 -18.9605 -24.4525 -10.3899 36.7523 0.799811 -30.2454 1.3354 -1.25593 -11.2719 2.11233 3.66881 28.8227 -0.404342 4.21665 -5.37389 -18.8146 0.948775 -14.8956 -13.9543 -5.22311 32.4473 1.55109 -5.10519 -2.86432 12.468 
56.9177 98.7923 277.858 2.40612 -2.32839 -174.309 3.36498 7.48807 2.57614 -92.1048 41.5835 -1.41656 21.4973 -6.40824 -24.8295 1.43811 14.4357 1.09195 2.25436 9.55469 14.8647 93.3862 72.6078 -19.1817 -24.5187 -10.48 36.9626 0.696583 -30.3824 1.2741 -1.3193 -11.1825 1.43685 3.6356 28.9499 -0.391343 4.31319 -5.12916 -18.6816 0.939617 -15.007 -14.0913 -5.21696 32.7041 1.57028 -4.99472 -2.76695 12.0543 
56.8988 98.7564 277.857 2.37323 -2.48955 -174.585 3.37257 7.28688 2.73167 -91.7607 42.0059 -1.66723 21.476 -6.40247 -24.8018 1.42479 14.6028 1.1016 2.32703 9.90858 14.357 93.5444 72.8689 -19.3947 -24.5252 -10.4822 36.98 0.670451 -30.3659 1.25939 -1.44141 -11.4117 1.16718 3.63702 28.8622 -0.410199 4.53123 -4.70827 -18.8573 0.924307 -15.1867 -13.8047 -5.21602 32.883 1.5993 -4.90223 -2.99046 12.028 
56.8814 98.7444 277.88 2.31461 -2.39856 -174.681 3.33947 7.44222 2.83676 -91.5467 42.089 -1.93692 21.544 -6.42463 -24.9032 1.41304 15.1751 1.08453 2.43514 9.8734 14.2401 93.3916 72.6384 -19.1306 -24.5666 -10.5197 37.0651 0.671948 -30.2012 1.26032 -1.53544 -11.4648 1.0878 3.62849 29.1383 -0.420476 4.46198 -4.76983 -18.5348 0.805547 -15.0533 -13.9787 -5.21459 32.8731 1.59282 -4.99695 -3.0516 12.3659 
56.8619 98.6955 277.929 2.29875 -2.22217 -174.454 3.48233 7.76315 2.51176 -91.2185 42.1962 -2.48373 21.6403 -6.50012 -25.109 1.44577 14.0883 1.06861 2.09299 9.44816 14.098 93.046 72.7842 -18.8453 -24.5952 -10.5298 37.0933 0.695973 -29.9976 1.27145 -1.5613 -11.3041 0.963173 3.61193 29.2194 -0.403287 4.3934 -4.93214 -18.5532 0.907571 -15.0871 -13.4916 -5.20712 33.0435 1.59347 -4.94189 -2.83741 11.9884 
56.8019 98.7183 277.928 1.96962 -2.42942 -174.476 3.25475 7.42689 2.44189 -91.3889 42.0442 -2.38543 21.6857 -6.50591 -25.1573 1.44042 14.5384 1.0527 1.80851 9.61908 13.6422 93.6969 72.9845 -19.602 -24.6513 -10.5865 37.2059 0.696323 -29.97 1.26809 -1.96059 -11.6501 1.02638 3.6264 29.5566 -0.445857 4.29778 -5.18859 -18.597 0.568796 -15.1841 -13.3805 -5.22654 32.9149 1.59054 -4.75006 -2.94336 11.5711 
56.8005 98.7299 277.956 2.06058 -2.43957 -174.518 3.50846 7.43102 2.5074 -91.1857 42.4437 -2.64584 21.7259 -6.54354 -25.2442 1.41981 14.2932 1.06773 1.87513 9.60026 13.4416 93.8089 73.0108 -19.8683 -24.7253 -10.6458 37.3397 0.699171 -29.908 1.26748 -1.8607 -11.7375 1.13246 3.63441 29.6863 -0.459167 4.21286 -5.30438 -18.3939 0.721972 -15.1267 -13.1187 -5.20526 32.7813 1.58855 -4.77396 -2.80715 11.5048 
56.7362 98.726 277.966 1.78452 -2.43077 -174.533 3.39097 7.44157 2.40806 -91.1108 42.703 -2.71237 21.7681 -6.59111 -25.3445 1.3859 14.1142 1.09705 1.79742 9.42451 13.7526 93.9459 73.333 -20.1562 -24.722 -10.6703 37.3806 0.662035 -29.9645 1.24118 -2.23249 -11.8149 1.0044 3.62092 29.9052 -0.47099 4.21392 -5.288 -18.2433 0.364067 -15.1357 -13.2495 -5.26567 32.7641 1.59041 -4.93317 -2.81432 11.9772 
56.7218 98.7326 277.969 1.9048 -2.41983 -174.435 3.72284 7.36329 2.31025 -91.3354 42.7465 -2.60333 21.758 -6.5865 -25.3259 1.34915 14.3844 1.12137 1.54311 9.24862 13.873 94.1583 73.3222 -20.5133 -24.7403 -10.7087 37.4568 0.636773 -30.3842 1.22689 -2.08935 -11.7317 1.07048 3.62934 29.7722 -0.46443 4.2396 -5.31167 -18.5479 0.489792 -14.9102 -13.2693 -5.18319 32.5381 1.55962 -4.78894 -2.77328 11.5171 
56.7114 98.7425 277.993 1.72906 -2.55995 -174.44 3.54517 7.22311 2.478 -91.4091 42.6945 -2.68191 21.6487 -6.50783 -25.1147 1.30057 15.2092 1.15182 1.55923 9.27803 13.6858 94.2274 73.1885 -20.6019 -24.7991 -10.7826 37.6162 0.605571 -30.7898 1.20874 -2.30174 -11.8933 1.12776 3.62925 29.7934 -0.463284 4.23672 -5.24616 -18.2514 0.26659 -15.2015 -13.3553 -5.23666 32.6428 1.58435 -4.81408 -2.70166 11.5351 
56.7238 98.7069 277.986 1.81153 -2.43649 -174.442 3.75241 7.31622 2.62222 -91.5265 42.6696 -2.71898 21.7354 -6.56581 -25.2835 1.41652 14.3661 1.0712 1.78028 9.04536 13.8618 94.1105 72.8874 -20.3885 -24.8137 -10.7973 37.6473 0.597729 -30.6836 1.20282 -2.18236 -11.7374 1.20563 3.62387 29.7338 -0.463729 4.27011 -5.27389 -18.6114 0.36705 -14.9105 -13.3748 -5.17907 32.5417 1.55884 -4.72282 -2.84638 11.402 
56.7454 98.6945 277.986 1.84429 -2.35606 -174.425 3.8806 7.34675 2.61726 -91.6832 42.9553 -2.44583 21.7637 -6.58298 -25.3189 1.36098 14.6643 1.10227 1.5718 8.9948 13.8605 94.7534 73.1885 -21.2624 -24.9795 -10.9493 37.984 0.590333 -30.9688 1.19659 -2.11985 -11.7093 1.18712 3.61972 29.8498 -0.466196 4.27713 -5.22738 -18.5273 0.398086 -14.9037 -13.4405 -5.20183 32.5991 1.55731 -4.6905 -2.88187 11.3391 
56.734 98.6948 277.989 1.61644 -2.70527 -174.226 3.55324 6.85516 2.52664 -91.5592 42.8465 -2.50161 21.668 -6.50562 -25.1253 1.37352 15.2633 1.09083 1.62213 9.01183 13.686 95.3761 73.3448 -21.8466 -25.0033 -10.9735 38.035 0.580936 -31.0306 1.1896 -2.42651 -12.1112 1.03858 3.63895 29.9879 -0.508098 4.32195 -5.18922 -18.6681 0.126291 -15.3399 -13.3721 -5.2466 32.6001 1.58902 -4.84877 -2.73287 11.673 
56.7502 98.6907 278.003 1.62745 -2.64471 -174.031 3.56583 6.84866 2.37583 -91.4264 43.0405 -2.35334 21.6879 -6.53163 -25.1806 1.38529 14.5894 1.09569 2.01242 9.08396 13.83 95.6241 73.3968 -22.0889 -25.0271 -10.9951 38.0881 0.557313 -30.8228 1.17234 -2.39287 -12.0322 0.974746 3.64011 29.9893 -0.501307 4.25984 -5.36196 -18.791 0.149765 -15.3078 -13.4845 -5.23123 32.5836 1.5791 -4.70692 -2.66112 11.2022 
56.7542 98.7093 278.004 1.38519 -2.58033 -173.996 3.28171 6.89954 2.40205 -91.3231 42.9028 -2.41905 21.65 -6.51464 -25.1272 1.42957 14.4274 1.07368 1.97478 8.92132 13.9345 95.6907 73.2077 -22.173 -25.1091 -11.0531 38.226 0.5355 -30.2585 1.15174 -2.65524 -12.0308 0.857003 3.62687 30.1876 -0.506061 4.21258 -5.43387 -18.5987 -0.171741 -15.0948 -13.7945 -5.2374 32.4036 1.55643 -4.83431 -2.67231 11.5773 
56.794 98.6767 278.012 1.53014 -2.49602 -173.964 3.48993 6.94248 2.43894 -91.1375 43.0893 -2.46973 21.7195 -6.55478 -25.2506 1.48778 13.5303 1.03052 1.70995 8.66207 13.9497 95.4069 73.4764 -21.9543 -25.0585 -11.016 38.1383 0.557062 -30.4991 1.16689 -2.45053 -11.9351 0.960651 3.62945 30.1119 -0.501852 4.28486 -5.30933 -18.7777 0.0727239 -15.1243 -13.5308 -5.23026 32.5188 1.56338 -4.63443 -2.80604 11.1309 
56.7893 98.6988 278.007 1.36547 -2.49599 -173.874 3.36322 6.82759 2.40549 -91.379 42.678 -2.38022 21.6022 -6.50223 -25.0704 1.44232 14.4417 1.07868 1.90676 8.83927 14.439 95.4309 73.4954 -22.0366 -25.0427 -10.9942 38.0924 0.55622 -30.6099 1.16719 -2.65377 -11.9436 0.807424 3.61527 30.254 -0.499376 4.25369 -5.35589 -18.6404 -0.0405307 -15.0786 -13.3055 -5.22476 32.4222 1.55312 -4.73697 -2.44954 11.0935 
56.8175 98.6949 277.979 1.46311 -2.55916 -173.811 3.44199 6.60775 2.51894 -91.435 42.6111 -2.41056 21.5694 -6.46484 -24.9884 1.43057 14.6354 1.08205 1.99747 8.63531 14.924 95.4238 73.1155 -21.9556 -25.0629 -10.9969 38.1073 0.55899 -30.7269 1.17041 -2.51765 -11.9791 0.868818 3.629 30.2097 -0.505403 4.24359 -5.40544 -18.7759 0.0878246 -15.1538 -13.2614 -5.22319 32.4128 1.55471 -4.67982 -2.48891 10.9711 
